<?xml version="1.0" encoding="utf-8"?>
<!DOCTYPE svg PUBLIC "-//W3C//DTD SVG 1.1//EN" "http://www.w3.org/Graphics/SVG/1.1/DTD/svg11.dtd" [
	<!ENTITY ns_svg "http://www.w3.org/2000/svg">
	<!ENTITY ns_xlink "http://www.w3.org/1999/xlink">
]>
<svg  version="1.1" xmlns="&ns_svg;" xmlns:xlink="&ns_xlink;" width="128" height="128" viewBox="0 0 128 128"
	 overflow="visible" enable-background="new 0 0 128 128" xml:space="preserve">
	<path opacity="0.2" fill="#38251C" d="M5.5,64c0,31.981,26.691,58,59.5,58s59.5-26.019,59.5-58S97.809,6,65,6S5.5,32.019,5.5,64z"
		/>
	<path opacity="0.2" fill="#38251C" d="M5.5,65c0,31.981,26.691,58,59.5,58s59.5-26.019,59.5-58S97.809,7,65,7S5.5,33.019,5.5,65z"
		/>
	<path opacity="0.3" fill="#38251C" d="M6.5,64c0,31.43,26.243,57,58.5,57s58.5-25.57,58.5-57S97.257,7,65,7S6.5,32.57,6.5,64z"/>
	<path opacity="0.3" fill="#38251C" d="M5.5,63c0,31.43,26.243,57,58.5,57s58.5-25.57,58.5-57S96.257,6,64,6S5.5,31.57,5.5,63z"/>
	<path opacity="0.7" fill="#543221" d="M5.5,62c0,31.43,26.243,57,58.5,57s58.5-25.57,58.5-57S96.257,5,64,5S5.5,30.57,5.5,62z"/>
	
		<radialGradient id="XMLID_6_" cx="7.2427" cy="-16.4668" r="150.415" gradientTransform="matrix(0.9974 0 0 0.9957 0.358 -0.4109)" gradientUnits="userSpaceOnUse">
		<stop  offset="0.6854" style="stop-color:#F47302"/>
		<stop  offset="1" style="stop-color:#FA9827"/>
	</radialGradient>
	<ellipse fill="url(#XMLID_6_)" cx="64" cy="62" rx="57.5" ry="56"/>
	
		<radialGradient id="XMLID_7_" cx="8.6787" cy="-14.4585" r="146.5987" gradientTransform="matrix(0.9974 0 0 0.9957 0.358 -0.4109)" gradientUnits="userSpaceOnUse">
		<stop  offset="0.6854" style="stop-color:#F47302"/>
		<stop  offset="1" style="stop-color:#FAB627"/>
	</radialGradient>
	<ellipse fill="url(#XMLID_7_)" cx="64" cy="62" rx="56.041" ry="54.579"/>
	<path fill="#F15B00" d="M113.932,34.301c-0.914-0.971-2.029-2.279-2.064-2.513c-0.033-0.203,0.101-0.289,0.298-0.323
		c-3.164-4.719-7.009-8.96-11.444-12.55c-1.131-0.078-1.046,0.031,0.894,1.787c0.939,0.852,1.78,2.008,1.872,2.563
		c0.151,0.946,0.034,0.985-1.629,0.559c-1.929-0.5-2.397-0.041-1.985,1.965c0.142,0.708,0.228,2.285,0.186,3.507
		c-0.055,1.96,0.05,2.165,0.956,1.789c0.562-0.234,1.113-0.124,1.217,0.248c0.106,0.37,0.257,0.818,0.326,1
		c0.063,0.182,0.509-0.116,0.978-0.659c0.783-0.896,0.809-0.884,0.249,0.161c-0.331,0.629-0.408,1.099-0.176,1.044
		c0.244-0.057,0.094,0.451-0.328,1.129c-0.419,0.675-0.602,1.334-0.399,1.464c0.446,0.293-2.214,3.162-3.003,3.233
		c-0.32,0.034-0.521,0.429-0.451,0.887c0.074,0.457-0.209,1.817-0.631,3.019c-0.413,1.203-0.563,3.004-0.334,4.006
		c0.222,0.998,0.191,1.741-0.07,1.65c-0.272-0.091-0.22,1.493,0.114,3.518c0.425,2.63,0.78,3.6,1.265,3.385
		c0.376-0.164,1.165,0.453,1.762,1.363c1.521,2.346,4.235,3.572,5.521,2.504c0.545-0.455,1.46-0.79,2.034-0.748
		c0.572,0.047,1.472-0.397,1.997-0.986c1.247-1.388,2.329-1.647,2.495-0.6c0.077,0.47,0.638,0.714,1.305,0.559
		c1.059-0.248,1.172-0.045,1.158,2.044c-0.014,1.291,0.468,3.461,1.085,4.892c0.924,2.16,1.002,2.845,0.475,4.323
		c-0.371,1.041-0.431,4.291-0.146,7.965c0.148,1.931,0.249,3.84,0.291,5.28C120.133,75.611,121.5,68.969,121.5,62
		C121.5,51.913,118.723,42.476,113.932,34.301z M98.006,16.917c-0.345-0.249-0.679-0.512-1.029-0.752
		C97.206,16.618,97.582,16.954,98.006,16.917z M75.362,65.771c-0.329,0.189-0.915-0.06-1.31-0.548
		c-0.395-0.489-1.063-0.849-1.484-0.8c-0.423,0.049-1.959-0.563-3.425-1.371c-2.166-1.188-2.785-1.333-3.275-0.762
		c-0.317,0.384-0.252,0.168,0.167-0.485c0.49-0.776,0.602-1.284,0.308-1.471c-0.242-0.159-0.45-0.681-0.45-1.17
		c-0.002-1.205-1.468-2.467-3.123-2.67c-1.635-0.203-4.579-2.68-4.604-3.884c-0.012-0.475-0.264-0.825-0.557-0.775
		c-1.474,0.238-2.082,0.051-1.799-0.548c0.186-0.406,0.109-0.48-0.2-0.208c-0.277,0.247-0.39,0.652-0.247,0.908
		c0.293,0.533-0.055,0.613-1.416,0.323c-0.531-0.112-0.847-0.468-0.703-0.789c0.147-0.318,0.078-0.417-0.146-0.213
		c-0.23,0.202-0.946,0.094-1.592-0.235c-0.646-0.333-1.169-0.377-1.161-0.106c0.008,0.275-0.2,0.525-0.449,0.554
		c-0.261,0.03-0.326-0.241-0.162-0.604c0.214-0.461,0.056-0.507-0.52-0.162c-0.452,0.274-1.182,0.633-1.637,0.796
		c-0.448,0.164-1.172,0.823-1.6,1.464c-0.914,1.345-0.964,1.363-2.098,0.767c-0.586-0.312-1.104-0.253-1.671,0.188
		c-1.693,1.33-2.763-0.126-2.867-3.935c-0.066-2.273-0.611-2.598-3.305-1.925c-1.36,0.342-1.56,0.276-1.178-0.387
		c0.259-0.438,0.354-0.924,0.212-1.076c-0.148-0.15,0.021-1.072,0.375-2.048c0.712-1.985,0.488-2.821-0.651-2.417
		c-0.419,0.147-0.992,0.317-1.261,0.372c-0.276,0.054-0.594,0.693-0.704,1.42c-0.139,0.905-0.612,1.47-1.506,1.793
		c-1.783,0.652-2.46,0.31-3.381-1.705c-1.01-2.179-1.12-3.988-0.353-5.603c0.876-1.851,3.495-4.09,4.527-3.87
		c0.573,0.116,0.873-0.096,0.852-0.602c-0.043-0.86,0.841-1.084,3.067-0.787c1.048,0.147,1.611,0.655,2.082,1.875
		c0.763,1.965,1.984,3.204,2.34,2.386c0.299-0.685-0.515-3.116-1.191-3.552c-0.918-0.595-0.597-2.942,0.613-4.424
		c1.798-2.186,1.926-2.779,0.981-4.433c-0.795-1.4-0.798-1.46-0.048-0.805c0.691,0.592,0.813,0.578,0.797-0.088
		c-0.008-0.439,0.359-1.486,0.819-2.341c0.46-0.852,0.834-1.981,0.822-2.513c-0.017-0.789,0.317-0.945,1.811-0.854
		c1.139,0.063,1.818-0.123,1.813-0.511c-0.01-0.345,0.442-0.759,1.001-0.926c0.646-0.188,0.995-0.677,0.938-1.323
		c-0.105-1.208,1.872-1.682,2.26-0.548c0.171,0.492,0.259,0.432,0.272-0.175c0.026-0.791,0.081-0.797,0.489-0.058
		c0.398,0.73,0.455,0.711,0.444-0.125c-0.006-0.533-0.45-1.55-0.991-2.264c-0.535-0.713-0.836-0.979-0.67-0.585
		c0.579,1.334-0.558,0.81-1.36-0.637c-0.772-1.372-1.556-2.364-2.159-2.832c-14.303,4.276-26.213,13.845-33.359,26.356
		c0.23,0.427,0.384,0.83,0.406,1.106c0.043,0.548,0.301,1.142,0.566,1.308c0.271,0.17,0.408,0.77,0.307,1.335
		c-0.106,0.629,0.104,1.12,0.528,1.274c0.393,0.137,0.731,0.588,0.762,1.008c0.029,0.417,0.487,1.158,1.017,1.651
		c0.835,0.774,0.948,0.776,0.896,0.012c-0.03-0.48-0.288-1.012-0.561-1.184c-0.275-0.167-0.409-0.667-0.313-1.107
		c0.098-0.443,0-0.783-0.22-0.759c-0.219,0.027-0.774-0.729-1.231-1.676l-0.831-1.731l1.499,1.796
		c0.824,0.983,1.651,2.022,1.846,2.302c1.433,2.09,3.277,4.029,3.67,3.864c0.256-0.108,0.124,0.199-0.295,0.685
		c-1.011,1.154-0.43,2.007,1.213,1.82c0.728-0.084,1.214,0.093,1.091,0.395c-0.408,0.97,2.029,2.074,4.317,1.963
		c1.495-0.072,2.563,0.211,3.248,0.861c0.554,0.532,1.698,1.057,2.553,1.167c1.662,0.226,3.568,1.745,3.616,2.876
		c0.011,0.386,0.21,0.676,0.432,0.649c0.226-0.024,0.671,0.239,0.997,0.588c0.851,0.889,3.458,1.172,3.296,0.358
		c-0.064-0.349,0.115-0.659,0.411-0.691c0.298-0.033,0.566,0.17,0.6,0.454c0.033,0.288,0.222,0.624,0.419,0.741
		c0.192,0.123,0.438,1.087,0.553,2.141c0.162,1.605-0.014,2.17-1.129,3.536c-1.82,2.256-2.45,6.469-1.242,8.249
		c1.229,1.814,2.788,5.101,3.48,7.314c0.137,0.443,0.982,1.153,1.872,1.575c2.005,0.946,2.858,2.516,2.574,4.691
		c-0.358,2.691-0.635,5.888-0.611,6.881c0.017,0.517-0.181,1.911-0.443,3.1c-0.265,1.181-0.575,3.196-0.688,4.473
		c-0.117,1.275-0.416,2.488-0.666,2.703c-0.32,0.272-0.284,0.372,0.102,0.328c0.39-0.041,0.436,0.123,0.159,0.559
		c-0.621,0.986,0.222,2.496,1.668,2.986c1.216,0.41,2.715,0.209,2.704-0.356c0-0.126-0.323-0.472-0.715-0.761
		c-0.67-0.497-0.655-0.594,0.243-1.576c0.676-0.744,0.819-1.137,0.474-1.333c-0.323-0.183,0.232-1.081,1.654-2.674
		c1.182-1.327,2.324-2.435,2.531-2.461c0.633-0.073,1.479-1.645,1.343-2.483c-0.093-0.593,0.106-0.767,0.8-0.706
		c0.909,0.075,3.06-2.171,5.051-5.263c0.397-0.626,1.233-1.58,1.852-2.115c0.62-0.534,1.129-1.273,1.129-1.642
		c0-0.366,0.604-0.974,1.342-1.353c1.495-0.771,3.366-3.74,3.815-6.096c0.162-0.852,1.147-2.803,2.184-4.342
		c1.334-1.975,1.897-3.248,1.921-4.313C75.951,65.852,75.795,65.525,75.362,65.771z"/>
	
		<radialGradient id="XMLID_8_" cx="41.0034" cy="23.8657" r="67.9882" gradientTransform="matrix(0.9915 0 0 0.9957 1.5056 -0.4109)" gradientUnits="userSpaceOnUse">
		<stop  offset="0" style="stop-color:#FDE2D1"/>
		<stop  offset="1" style="stop-color:#F9AF45"/>
	</radialGradient>
	<path fill="url(#XMLID_8_)" d="M64,79.828c25.425,0,47.065-10.469,55.615-25.18C115.701,27.956,92.33,7.421,64,7.421
		S12.299,27.956,8.385,54.648C16.936,69.359,38.575,79.828,64,79.828z"/>
	
		<radialGradient id="XMLID_9_" cx="41.9121" cy="23.8662" r="67.8301" gradientTransform="matrix(0.9974 0 0 0.9957 0.358 -0.4109)" gradientUnits="userSpaceOnUse">
		<stop  offset="0" style="stop-color:#FDE7D9"/>
		<stop  offset="1" style="stop-color:#F48341"/>
	</radialGradient>
	<path fill="url(#XMLID_9_)" d="M75.362,65.771c-0.329,0.189-0.915-0.06-1.31-0.548c-0.395-0.489-1.063-0.849-1.484-0.8
		c-0.423,0.049-1.959-0.563-3.425-1.371c-2.166-1.188-2.785-1.333-3.275-0.762c-0.317,0.384-0.252,0.168,0.167-0.485
		c0.49-0.776,0.602-1.284,0.308-1.471c-0.242-0.159-0.45-0.681-0.45-1.17c-0.002-1.205-1.468-2.467-3.123-2.67
		c-1.635-0.203-4.579-2.68-4.604-3.884c-0.012-0.475-0.264-0.825-0.557-0.775c-1.474,0.238-2.082,0.051-1.799-0.548
		c0.186-0.406,0.109-0.48-0.2-0.208c-0.277,0.247-0.39,0.652-0.247,0.908c0.293,0.533-0.055,0.613-1.416,0.323
		c-0.531-0.112-0.847-0.468-0.703-0.789c0.147-0.318,0.078-0.417-0.146-0.213c-0.23,0.202-0.946,0.094-1.592-0.235
		c-0.646-0.333-1.169-0.377-1.161-0.106c0.008,0.275-0.2,0.525-0.449,0.554c-0.261,0.03-0.326-0.241-0.162-0.604
		c0.214-0.461,0.056-0.507-0.52-0.162c-0.452,0.274-1.182,0.633-1.637,0.796c-0.448,0.164-1.172,0.823-1.6,1.464
		c-0.914,1.345-0.964,1.363-2.098,0.767c-0.586-0.312-1.104-0.253-1.671,0.188c-1.693,1.33-2.763-0.126-2.867-3.935
		c-0.066-2.273-0.611-2.598-3.305-1.925c-1.36,0.342-1.56,0.276-1.178-0.387c0.259-0.438,0.354-0.924,0.212-1.076
		c-0.148-0.15,0.021-1.072,0.375-2.048c0.712-1.985,0.488-2.821-0.651-2.417c-0.419,0.147-0.992,0.317-1.261,0.372
		c-0.276,0.054-0.594,0.693-0.704,1.42c-0.139,0.905-0.612,1.47-1.506,1.793c-1.783,0.652-2.46,0.31-3.381-1.705
		c-1.01-2.179-1.12-3.988-0.353-5.603c0.876-1.851,3.495-4.09,4.527-3.87c0.573,0.116,0.873-0.096,0.852-0.602
		c-0.043-0.86,0.841-1.084,3.067-0.787c1.048,0.147,1.611,0.655,2.082,1.875c0.763,1.965,1.984,3.204,2.34,2.386
		c0.299-0.685-0.515-3.116-1.191-3.552c-0.918-0.595-0.597-2.942,0.613-4.424c1.798-2.186,1.926-2.779,0.981-4.433
		c-0.795-1.4-0.798-1.46-0.048-0.805c0.691,0.592,0.813,0.578,0.797-0.088c-0.008-0.439,0.359-1.486,0.819-2.341
		c0.46-0.852,0.834-1.981,0.822-2.513c-0.017-0.789,0.317-0.945,1.811-0.854c1.139,0.063,1.818-0.123,1.813-0.511
		c-0.01-0.345,0.442-0.759,1.001-0.926c0.646-0.188,0.995-0.677,0.938-1.323c-0.105-1.208,1.872-1.682,2.26-0.548
		c0.171,0.492,0.259,0.432,0.272-0.175c0.026-0.791,0.081-0.797,0.489-0.058c0.398,0.73,0.455,0.711,0.444-0.125
		c-0.006-0.533-0.45-1.55-0.991-2.264c-0.535-0.713-0.836-0.979-0.67-0.585c0.579,1.334-0.558,0.81-1.36-0.637
		c-0.362-0.644-0.727-1.196-1.074-1.658C33.532,13.849,21.38,23.751,14.354,36.738c0.103,0.232,0.23,0.418,0.361,0.5
		c0.271,0.17,0.408,0.77,0.307,1.335c-0.106,0.629,0.104,1.12,0.528,1.274c0.393,0.137,0.731,0.588,0.762,1.008
		c0.029,0.417,0.487,1.158,1.017,1.651c0.835,0.774,0.948,0.776,0.896,0.012c-0.03-0.48-0.288-1.012-0.561-1.184
		c-0.275-0.167-0.409-0.667-0.313-1.107c0.098-0.443,0-0.783-0.22-0.759c-0.219,0.027-0.774-0.729-1.231-1.676l-0.831-1.731
		l1.499,1.796c0.824,0.983,1.651,2.022,1.846,2.302c1.433,2.09,3.277,4.029,3.67,3.864c0.256-0.108,0.124,0.199-0.295,0.685
		c-1.011,1.154-0.43,2.007,1.213,1.82c0.728-0.084,1.214,0.093,1.091,0.395c-0.408,0.97,2.029,2.074,4.317,1.963
		c1.495-0.072,2.563,0.211,3.248,0.861c0.554,0.532,1.698,1.057,2.553,1.167c1.662,0.226,3.568,1.745,3.616,2.876
		c0.011,0.386,0.21,0.676,0.432,0.649c0.226-0.024,0.671,0.239,0.997,0.588c0.851,0.889,3.458,1.172,3.296,0.358
		c-0.064-0.349,0.115-0.659,0.411-0.691c0.298-0.033,0.566,0.17,0.6,0.454c0.033,0.288,0.222,0.624,0.419,0.741
		c0.192,0.123,0.438,1.087,0.553,2.141c0.162,1.605-0.014,2.17-1.129,3.536c-1.82,2.256-2.45,6.469-1.242,8.249
		c1.229,1.814,2.788,5.101,3.48,7.314c0.083,0.269,0.429,0.636,0.885,0.978c5.524,1.113,11.389,1.719,17.474,1.719
		c2.048,0,4.068-0.074,6.063-0.207c0.821-1.207,1.519-2.699,1.769-4.012c0.162-0.852,1.147-2.803,2.184-4.342
		c1.334-1.975,1.897-3.248,1.921-4.313C75.951,65.852,75.795,65.525,75.362,65.771z M103.499,23.356
		c0.125,0.847-0.04,0.877-1.642,0.466c-1.929-0.5-2.397-0.041-1.985,1.965c0.142,0.708,0.228,2.285,0.186,3.507
		c-0.055,1.96,0.05,2.165,0.956,1.789c0.562-0.234,1.113-0.124,1.217,0.248c0.106,0.37,0.257,0.818,0.326,1
		c0.063,0.182,0.509-0.116,0.978-0.659c0.783-0.896,0.809-0.884,0.249,0.161c-0.331,0.629-0.408,1.099-0.176,1.044
		c0.244-0.057,0.094,0.451-0.328,1.129c-0.419,0.675-0.602,1.334-0.399,1.464c0.446,0.293-2.214,3.162-3.003,3.233
		c-0.32,0.034-0.521,0.429-0.451,0.887c0.074,0.457-0.209,1.817-0.631,3.019c-0.413,1.203-0.563,3.004-0.334,4.006
		c0.222,0.998,0.191,1.741-0.07,1.65c-0.272-0.091-0.22,1.493,0.114,3.518c0.425,2.63,0.78,3.6,1.265,3.385
		c0.376-0.164,1.165,0.453,1.762,1.363c1.521,2.346,4.235,3.572,5.521,2.504c0.545-0.455,1.46-0.79,2.034-0.748
		c0.572,0.047,1.472-0.397,1.997-0.986c1.247-1.388,2.329-1.647,2.495-0.6c0.077,0.47,0.638,0.714,1.305,0.559
		c1.059-0.248,1.172-0.045,1.158,2.044c-0.001,0.11,0.006,0.235,0.012,0.357c1.357-1.607,2.554-3.28,3.563-5.016
		C117.831,42.481,111.995,31.603,103.499,23.356z"/>
	
		<radialGradient id="XMLID_10_" cx="63.8081" cy="62.6787" r="56.4829" gradientTransform="matrix(0.9974 0 0 0.9957 0.358 -0.4109)" gradientUnits="userSpaceOnUse">
		<stop  offset="0.9494" style="stop-color:#FDE7CC"/>
		<stop  offset="1" style="stop-color:#F47302"/>
	</radialGradient>
	<path fill="url(#XMLID_10_)" d="M120.064,74.416c-0.995-3.288-2.256-6.741-3.813-10.04c1.269-1.44,2.038-3.353,1.985-5.451
		c-0.085-3.356-2.211-6.32-5.071-7.622c-0.806-10.072-3.83-20.085-7.214-27.583c-1.324-1.375-2.718-2.683-4.176-3.921
		c4.053,7.206,8.256,18.937,9.338,30.886c-0.272-0.042-0.548-0.07-0.825-0.082c-1.194-0.046-2.309,0.224-3.297,0.729
		C93.336,38.251,70.144,31.326,56.987,31.326c-4,0-8.039,0.375-12.11,1.113c-0.217-2.69-1.682-4.838-3.854-5.807
		C48.522,13.86,59.188,8.71,64.49,6.153l0.274-0.134C64.509,6.016,64.257,6,64,6c-1.33,0-2.646,0.06-3.954,0.146
		C54.042,9.315,45.356,14.993,39,26.104c-0.462-0.043-0.938-0.048-1.434,0.003c-4.414,0.461-8.607,4.513-9.185,8.922
		c-0.104,0.801-0.072,1.564,0.073,2.28c-6.697,2.758-13.453,6.466-20.24,11.101c-0.243,0.946-0.457,1.902-0.648,2.866
		c7.258-5.127,14.471-9.143,21.606-12.079c0.785,1.359,2.07,2.393,3.671,2.934c-1.316,5.634-2.098,12.085-2.098,19.52
		c0,10.346,2.148,19.037,5.267,26.219c-1.656,0.903-2.851,2.4-3.292,4.244C21.494,87.982,13.413,81.812,8.946,78.179
		c0.368,1.188,0.773,2.358,1.219,3.511c4.905,3.788,12.463,8.929,22.388,12.494c0.009,0.142,0.01,0.28,0.026,0.424
		c0.523,4.468,4.661,8.521,9.075,8.93c1.336,0.122,2.564-0.121,3.627-0.645c4.098,4.914,8.188,8.311,10.952,10.318
		c2.587,1.877,5.253,3.477,7.896,4.785c1.5-0.002,2.982-0.076,4.455-0.189c-3.479-1.353-7.28-3.379-11.177-6.207
		c-2.654-1.925-6.564-5.172-10.495-9.862c1.006-0.974,1.715-2.28,2.019-3.795c2.37,0.253,4.815,0.403,7.355,0.403
		c20.926,0,45.757-15.439,54.146-31.352c0.06,0,0.117,0.008,0.178,0.008c1.506-0.016,2.912-0.488,4.102-1.28
		c1.933,4.181,3.341,8.558,4.343,12.452C119.437,76.938,119.769,75.684,120.064,74.416z M56.287,96.354
		c-2.482,0-4.878-0.142-7.194-0.392c-0.003-0.081,0.002-0.16-0.003-0.241c-0.28-4.668-4.215-8.571-8.881-8.784
		c-0.817-0.035-1.596,0.045-2.325,0.217c-3.042-6.977-5.143-15.429-5.143-25.504c0-7.295,0.769-13.619,2.065-19.13
		c0.366,0.028,0.738,0.042,1.123,0.022c4.422-0.227,8.209-3.745,8.876-8.058c4.099-0.77,8.163-1.167,12.182-1.167
		c12.726,0,35.085,6.644,48.355,19.193c-1.538,1.479-2.485,3.69-2.451,6.193c0.059,3.791,2.365,6.971,5.534,7.969
		C100.238,81.766,76.402,96.354,56.287,96.354z"/>
</svg>
